# xmcd
# Track frame offsets:
# 150
# 23363
# 59657
# 89464
# 92327
# 123181
# 135230
# 162976
# 199392
# 234864
# 257114
# 277251
#
# Disc length: 3982 seconds
# Revision: 1
# Processed by: cddbd v1.5.2PL0 Copyright (c) Steve Scherf et al.
# Submitted via: VisiTrax 2.10.3.257 - For more info visit www.synapsa.com
#
DISCID=9c0f8c0c
DTITLE=Randolph, Robert (Robert Randolph And The Family Band) - Live In Conce
DTITLE=rt
DYEAR=2011
DGENRE=Blues;Rock;Jam Band
TTITLE0=Traveling Shoes
TTITLE1=Squeeze
TTITLE2=Don't Change
TTITLE3=Sacred Steel
TTITLE4=If I Had My Way
TTITLE5=Electric Church
TTITLE6=Peekaboo
TTITLE7=I'll Take You There
TTITLE8=Walk Don't Walk
TTITLE9=Back to the Wall
TTITLE10=Shining Star
TTITLE11=Purple Haze
EXTD=Produced By Robert Randolph and John McDermott. Recorded By Sean Quacken
EXTD=bush. Mixed by Eddie Kramer and Chandler Harrod. Assisted By Patrick M
EXTD=acDougall. Vulcan Studios, LAFX Studios, North Hollywood, CA. Mastere
EXTD=d By Ryan Smith. Sterling Sound, New York. ROBERT RANDOLPH and THE FAMIL
EXTD=Y BAND: ROBERT RANDOLPH - Vocals, lap and Steel Guitar, DANYEL MORGA
EXTD=N - Vocals and Bass, MARCUS RANDOLPH - Drums, LENESHA RANDOLPH - Vocals
EXTD=, BRETT HASS - Guitar, Keyboards and Vocals. DARE DR002.
EXTT0=
EXTT1=
EXTT2=
EXTT3=
EXTT4=
EXTT5=
EXTT6=
EXTT7=
EXTT8=
EXTT9=
EXTT10=
EXTT11=
PLAYORDER=
